<?xml version="1.0" encoding="utf-8"?>
<!-- Generator: Adobe Illustrator 22.0.1, SVG Export Plug-In . SVG Version: 6.00 Build 0)  -->
<svg version="1.1" id="Layer_1" xmlns="http://www.w3.org/2000/svg" xmlns:xlink="http://www.w3.org/1999/xlink" x="0px" y="0px"
	 viewBox="0 0 551 300.1" style="enable-background:new 0 0 551 300.1;" xml:space="preserve">
<style type="text/css">
	.st0{fill:#383D45;}
	.st1{fill:#FFD41A;}
	.st2{fill:#0080C5;}
</style>
<g>
	<g>
		<g>
			<path class="st0" d="M267.7,217.5v-67.9h21.6c4.2,0,7.8,0.4,10.8,1.2c3,0.8,5.5,2,7.4,3.5s3.4,3.4,4.3,5.6s1.4,4.7,1.4,7.4
				c0,1.7-0.3,3.3-0.8,4.8s-1.3,3-2.4,4.3c-1.1,1.3-2.4,2.5-4,3.6c-1.6,1-3.5,1.9-5.6,2.6c5,1,8.7,2.8,11.2,5.4s3.8,6,3.8,10.2
				c0,2.9-0.5,5.5-1.6,7.9s-2.6,4.4-4.6,6.1s-4.5,3-7.5,4c-3,0.9-6.3,1.4-10.1,1.4h-23.9V217.5z M276.9,180H289
				c2.6,0,4.8-0.3,6.7-0.9s3.5-1.4,4.7-2.4s2.2-2.2,2.8-3.7c0.6-1.4,0.9-3,0.9-4.7c0-4-1.2-6.9-3.6-8.8c-2.4-1.9-6.1-2.8-11.2-2.8
				h-12.5L276.9,180L276.9,180z M276.9,186.6v23.6h14.6c2.6,0,4.9-0.3,6.7-0.9c1.9-0.6,3.4-1.4,4.6-2.5c1.2-1.1,2.1-2.4,2.7-3.9
				c0.6-1.5,0.9-3.2,0.9-5c0-3.5-1.2-6.3-3.7-8.3s-6.2-3.1-11.3-3.1L276.9,186.6L276.9,186.6z"/>
			<path class="st0" d="M358.1,217.5h-3.7c-0.8,0-1.5-0.1-2-0.4s-0.8-0.8-1-1.6l-0.9-4.5c-1.3,1.1-2.5,2.2-3.7,3.1s-2.5,1.7-3.8,2.3
				c-1.3,0.6-2.7,1.1-4.2,1.4s-3.2,0.5-5,0.5c-1.9,0-3.6-0.3-5.2-0.8c-1.6-0.5-3-1.3-4.2-2.4c-1.2-1-2.2-2.4-2.9-4s-1.1-3.5-1.1-5.7
				c0-1.9,0.5-3.7,1.6-5.5s2.7-3.3,5-4.7c2.3-1.4,5.4-2.5,9.1-3.4c3.8-0.9,8.4-1.3,13.8-1.3v-3.8c0-3.7-0.8-6.6-2.4-8.5
				c-1.6-1.9-4-2.9-7.1-2.9c-2.1,0-3.8,0.3-5.2,0.8s-2.6,1.1-3.6,1.8c-1,0.6-1.9,1.2-2.7,1.8c-0.7,0.5-1.5,0.8-2.2,0.8
				c-0.6,0-1.1-0.1-1.5-0.5c-0.4-0.3-0.8-0.7-1-1.1l-1.5-2.7c2.7-2.6,5.5-4.5,8.6-5.7c3.1-1.3,6.5-1.9,10.2-1.9
				c2.7,0,5.1,0.4,7.2,1.3c2.1,0.9,3.8,2.1,5.3,3.7c1.4,1.6,2.5,3.5,3.2,5.7s1.1,4.7,1.1,7.4v30.8H358.1z M336.3,212.4
				c1.5,0,2.8-0.1,4.1-0.5c1.2-0.3,2.4-0.7,3.5-1.3c1.1-0.6,2.1-1.2,3.1-2s2-1.7,2.9-2.7V196c-3.9,0-7.2,0.2-9.9,0.7
				s-4.9,1.1-6.6,1.9c-1.7,0.8-2.9,1.7-3.7,2.8c-0.8,1.1-1.2,2.3-1.2,3.6c0,1.3,0.2,2.4,0.6,3.3c0.4,0.9,1,1.7,1.7,2.3
				c0.7,0.6,1.5,1,2.5,1.3S335.1,212.4,336.3,212.4z"/>
			<path class="st0" d="M375.6,147.7v69.8h-8.4v-69.8H375.6z"/>
			<path class="st0" d="M394.5,147.7v41.1h2.2c0.6,0,1.2-0.1,1.6-0.3c0.4-0.2,0.9-0.5,1.4-1.1l15.2-16.2c0.5-0.5,0.9-0.9,1.4-1.2
				c0.5-0.3,1.1-0.5,1.9-0.5h7.7l-17.7,18.8c-0.4,0.5-0.9,1-1.3,1.4c-0.4,0.4-0.9,0.8-1.4,1.1c0.6,0.4,1.1,0.8,1.5,1.3
				c0.5,0.5,0.9,1.1,1.3,1.7l18.8,23.7h-7.6c-0.7,0-1.3-0.1-1.8-0.4s-1-0.7-1.4-1.3l-15.8-19.7c-0.5-0.7-0.9-1.1-1.4-1.3
				c-0.5-0.2-1.2-0.3-2.1-0.3h-2.5v22.9H386v-69.8h8.5V147.7z"/>
			<path class="st0" d="M465.9,217.5h-3.7c-0.8,0-1.5-0.1-2-0.4s-0.8-0.8-1-1.6l-0.9-4.5c-1.3,1.1-2.5,2.2-3.7,3.1s-2.5,1.7-3.8,2.3
				c-1.3,0.6-2.7,1.1-4.2,1.4s-3.2,0.5-5,0.5c-1.9,0-3.6-0.3-5.2-0.8c-1.6-0.5-3-1.3-4.2-2.4c-1.2-1-2.2-2.4-2.9-4s-1.1-3.5-1.1-5.7
				c0-1.9,0.5-3.7,1.6-5.5s2.7-3.3,5-4.7c2.3-1.4,5.4-2.5,9.1-3.4c3.8-0.9,8.4-1.3,13.8-1.3v-3.8c0-3.7-0.8-6.6-2.4-8.5
				c-1.6-1.9-4-2.9-7.1-2.9c-2.1,0-3.8,0.3-5.2,0.8s-2.6,1.1-3.6,1.8c-1,0.6-1.9,1.2-2.7,1.8s-1.5,0.8-2.2,0.8
				c-0.6,0-1.1-0.1-1.5-0.5c-0.4-0.3-0.8-0.7-1-1.1l-1.5-2.7c2.7-2.6,5.5-4.5,8.6-5.7c3.1-1.3,6.5-1.9,10.2-1.9
				c2.7,0,5.1,0.4,7.2,1.3c2.1,0.9,3.8,2.1,5.3,3.7c1.4,1.6,2.5,3.5,3.2,5.7s1.1,4.7,1.1,7.4v30.8H465.9z M444,212.4
				c1.5,0,2.8-0.1,4.1-0.5c1.2-0.3,2.4-0.7,3.5-1.3c1.1-0.6,2.1-1.2,3.1-2s2-1.7,2.9-2.7V196c-3.9,0-7.2,0.2-9.9,0.7
				s-4.9,1.1-6.6,1.9c-1.7,0.8-2.9,1.7-3.7,2.8c-0.8,1.1-1.2,2.3-1.2,3.6c0,1.3,0.2,2.4,0.6,3.3c0.4,0.9,1,1.7,1.7,2.3
				c0.7,0.6,1.5,1,2.5,1.3S442.9,212.4,444,212.4z"/>
			<path class="st0" d="M473.9,217.5v-48h5c1.2,0,2,0.6,2.3,1.8l0.7,5.2c2.1-2.3,4.4-4.2,7-5.6s5.5-2.1,8.9-2.1
				c2.6,0,4.9,0.4,6.9,1.3s3.7,2.1,5,3.7s2.4,3.5,3.1,5.8c0.7,2.2,1,4.7,1,7.4v30.6h-8.4V187c0-3.6-0.8-6.4-2.5-8.5
				c-1.7-2-4.2-3-7.6-3c-2.5,0-4.8,0.6-7,1.8c-2.2,1.2-4.2,2.8-6,4.9v35.3L473.9,217.5L473.9,217.5z"/>
		</g>
		<g>
			<path class="st0" d="M291.5,116.3h-12.7v22.3h-11.3V72.3H287c4.2,0,8,0.3,11.3,0.8s6.1,1.5,8.4,3c2.3,1.5,4.1,3.6,5.3,6.4
				c1.2,2.7,1.8,6.3,1.8,10.8s-0.7,8.2-2.1,11.1c-1.4,2.9-3.2,5.3-5.3,7.1c-2.2,1.8-4.6,3.1-7.2,3.8
				C296.5,115.9,294,116.3,291.5,116.3z M288.9,81.7h-10V106h11c4.5,0,7.8-1,9.7-2.9s2.9-5.2,2.9-9.7c0-2.1-0.2-3.9-0.7-5.4
				c-0.4-1.5-1.2-2.7-2.2-3.6c-1-0.9-2.4-1.6-4.2-2C293.6,81.9,291.5,81.7,288.9,81.7z"/>
			<path class="st0" d="M365.6,91.5l-29.3,70h-11.1l10.6-25.8l-19.6-44.2h11.9l12.9,31.7l12.6-31.7H365.6z"/>
			<path class="st0" d="M396.3,130.7l-0.9,8.8h-8.1c-2.1,0-3.9-0.3-5.5-0.9c-1.6-0.6-2.9-1.5-3.9-2.6s-1.8-2.3-2.3-3.8
				s-0.8-3-0.8-4.7v-27.3h-7.1l0.9-8.7h6.2V80.8l10.7-1.1v11.8h11v8.7h-11v22.4c0,2,0.1,3.5,0.2,4.6c0.1,1.1,0.4,1.9,0.9,2.4
				s1.3,0.8,2.4,0.9c1.1,0.1,2.6,0.2,4.5,0.2L396.3,130.7L396.3,130.7z"/>
			<path class="st0" d="M445.5,138.6h-10.7v-25.3c0-4.7-0.8-8.2-2.3-10.3s-4.1-3.2-7.7-3.2c-4.3,0-7.6,1.5-9.9,4.6v34.2h-10.7V67.5
				h10.7v27.3c3.3-2.8,6.9-4.2,11-4.2c13.1,0,19.6,7.5,19.6,22.6L445.5,138.6L445.5,138.6z"/>
			<path class="st0" d="M453.3,115.1c0-3.4,0.6-6.6,1.7-9.6c1.1-3,2.7-5.6,4.7-7.8c2.1-2.2,4.5-3.9,7.5-5.2c2.9-1.3,6.2-1.9,9.8-1.9
				s6.9,0.6,9.8,1.9c2.9,1.3,5.4,3,7.4,5.2c2.1,2.2,3.6,4.8,4.8,7.8c1.1,3,1.7,6.2,1.7,9.6c0,3.4-0.6,6.6-1.7,9.6
				c-1.1,3-2.7,5.6-4.7,7.8c-2.1,2.2-4.5,3.9-7.5,5.2c-2.9,1.3-6.2,1.9-9.8,1.9c-3.7,0-6.9-0.6-9.9-1.9c-2.9-1.3-5.4-3-7.4-5.2
				c-2.1-2.2-3.6-4.8-4.7-7.7C453.9,121.8,453.3,118.5,453.3,115.1z M464.3,115c0,4.7,1.1,8.5,3.4,11.2c2.2,2.8,5.4,4.2,9.3,4.2
				c4,0,7.1-1.4,9.3-4.2s3.4-6.5,3.4-11.2s-1.1-8.5-3.4-11.2c-2.2-2.7-5.4-4.1-9.3-4.1c-4,0-7.1,1.4-9.3,4.1
				C465.5,106.6,464.3,110.3,464.3,115z"/>
			<path class="st0" d="M550.9,138.6h-10.7v-25.5c0-4.6-0.8-8-2.4-10.1c-1.6-2.1-4.2-3.2-7.8-3.2c-4.4,0-7.8,1.5-10.1,4.6v34.2
				h-10.7V91.5h9.7l0.4,3.5c3.7-2.9,7.6-4.4,11.9-4.4c13.2,0,19.8,7.5,19.8,22.5v25.5H550.9z"/>
		</g>
	</g>
	<g>
		<path class="st1" d="M193.7,150c-4.7,9-10.7,17.3-17.8,24.5c-0.2,0.2-0.4,0.4-0.6,0.6c-0.5,0.5-1.1,1.1-1.6,1.6
			c-0.3,0.2-0.5,0.5-0.8,0.7c-0.5,0.5-1.1,1-1.6,1.5c-0.2,0.2-0.4,0.4-0.6,0.6c-1.6,1.4-3.2,2.8-4.9,4.1c-0.1,0.1-0.2,0.2-0.3,0.3
			c-0.8,0.6-1.5,1.2-2.3,1.7c-0.1,0.1-0.2,0.1-0.3,0.2c-1.8,1.3-3.6,2.5-5.5,3.7c0.4,2.6,0.6,5.2,0.6,7.9
			c0,30.5-24.8,55.3-55.3,55.3H71.1c-13.1,0-23.7-10.6-23.7-23.7s-10.6-23.7-23.7-23.7S0,215.9,0,229c0,39.2,31.9,71.1,71.1,71.1
			h31.6c56.6,0,102.6-46,102.6-102.6C205.3,180.3,201.1,164.2,193.7,150z"/>
		<path class="st1" d="M71.1,142.1h31.6c10.4,0,20.1,2.9,28.4,7.9c13.9-8.4,23.8-22.7,26.3-39.4c-15.8-10-34.6-15.8-54.7-15.8H71.1
			c-13.1,0-23.7-10.6-23.7-23.7c0,13.1-10.6,23.7-23.7,23.7S0,84.2,0,71.1C0.1,110.2,31.9,142.1,71.1,142.1z"/>
		<path class="st2" d="M102.7,0H71.1C31.9,0,0,31.9,0,71.1c0,13.1,10.6,23.7,23.7,23.7s23.7-10.6,23.7-23.7
			C47.4,58,58,47.4,71.1,47.4h31.6c30.5,0,55.3,24.8,55.3,55.3S133.2,158,102.7,158H71.1C31.9,158,0,189.9,0,229.1
			c0-13.1,10.6-23.7,23.7-23.7s23.7,10.6,23.7,23.7c0-13.1,10.6-23.7,23.7-23.7h31.6c56.6,0,102.6-46,102.6-102.6
			C205.3,46,159.3,0,102.7,0z"/>
	</g>
</g>
</svg>
