<?xml version="1.0" encoding="utf-8"?>
<!-- Generator: Adobe Illustrator 22.0.1, SVG Export Plug-In . SVG Version: 6.00 Build 0)  -->
<svg version="1.1" id="Layer_1" xmlns="http://www.w3.org/2000/svg" xmlns:xlink="http://www.w3.org/1999/xlink" x="0px" y="0px"
	 viewBox="0 0 205.4 300" style="enable-background:new 0 0 205.4 300;" xml:space="preserve">
<style type="text/css">
	.st0{fill:#FFD41A;}
	.st1{fill:#0080C5;}
</style>
<g>
	<path class="st0" d="M193.8,150c-4.7,9-10.7,17.3-17.8,24.5c-0.2,0.2-0.4,0.4-0.6,0.6c-0.6,0.6-1,1-1.6,1.6
		c-0.3,0.3-0.5,0.5-0.8,0.8c-0.6,0.5-1.1,1-1.6,1.5c-0.2,0.2-0.4,0.4-0.7,0.6c-1.6,1.4-3.2,2.7-4.9,4c-0.1,0.1-0.2,0.2-0.4,0.3
		c-0.8,0.6-1.5,1.2-2.3,1.8c-0.1,0.1-0.2,0.2-0.3,0.2c-1.8,1.3-3.7,2.5-5.5,3.8c0.4,2.6,0.6,5.3,0.6,8c0,30.5-24.8,55.2-55.2,55.2
		H71.2c-13,0-23.7-10.6-23.7-23.7s-10.6-23.7-23.7-23.7S0,215.8,0,228.9C0,268.1,31.9,300,71.1,300h31.7
		c56.6,0,102.7-46,102.7-102.7C205.4,180.3,201.2,164.2,193.8,150z"/>
	<path class="st0" d="M71.2,142.1h31.6c10.4,0,20.2,2.9,28.4,7.9c13.9-8.3,23.8-22.7,26.3-39.5c-15.8-10-34.6-15.8-54.7-15.8H71.2
		c-13,0-23.7-10.6-23.7-23.7c0,13.1-10.6,23.7-23.7,23.7S0,84.1,0,71C0.1,110.3,32,142.1,71.2,142.1z"/>
	<path class="st1" d="M102.8,0H71.2C32,0,0.1,31.9,0.1,71.1c0,13.1,10.6,23.7,23.7,23.7s23.7-10.6,23.7-23.7
		c0-13,10.6-23.7,23.7-23.7h31.5c30.5,0,55.2,24.8,55.2,55.2s-24.8,55.2-55.2,55.2H71.2c-39.2,0-71.1,31.9-71.1,71.1
		c0-13.1,10.6-23.7,23.7-23.7s23.7,10.6,23.7,23.7c0-13,10.6-23.7,23.7-23.7h31.5c56.6,0,102.7-46,102.7-102.7
		C205.4,46,159.4,0,102.8,0z"/>
</g>
</svg>
